<?xml version="1.0" encoding="iso-8859-1"?>
<!-- Generator: Adobe Illustrator 19.0.0, SVG Export Plug-In . SVG Version: 6.00 Build 0)  -->
<svg version="1.1" id="Capa_1" xmlns="http://www.w3.org/2000/svg" xmlns:xlink="http://www.w3.org/1999/xlink" x="0px" y="0px"
	 viewBox="0 0 419.735 419.735" style="enable-background:new 0 0 419.735 419.735;" xml:space="preserve">
<g>
	<g>
		<path d="M402.304,70.091H109.952c-5.12,0-10.752,2.56-14.336,7.168L3.456,199.115c-4.608,6.656-4.608,14.848,0,21.504
			l91.648,121.856c3.584,4.608,8.704,7.168,14.336,7.168h292.352c10.24,0,17.92-7.68,17.92-17.92V88.011
			C420.224,77.771,412.032,70.091,402.304,70.091z M311.68,238.027c7.168,6.656,7.68,17.92,0.512,25.088
			c-6.656,7.168-17.92,7.68-25.088,0.512c-0.512,0-0.512-0.512-0.512-0.512l-28.16-28.16l-28.16,28.16
			c-7.168,6.656-18.432,6.656-25.088-0.512c-6.656-7.168-6.656-17.408,0-24.576l28.16-28.16l-28.16-28.16
			c-6.656-7.168-6.656-18.432,0.512-25.088c7.168-6.656,17.408-6.656,24.576,0l28.16,28.16l28.16-28.16
			c6.656-7.168,17.92-7.68,25.088-0.512c7.168,7.168,7.68,17.92,0.512,25.088c0,0.512-0.512,0.512-0.512,0.512l-27.648,28.16
			L311.68,238.027z"/>
	</g>
</g>
<g>
</g>
<g>
</g>
<g>
</g>
<g>
</g>
<g>
</g>
<g>
</g>
<g>
</g>
<g>
</g>
<g>
</g>
<g>
</g>
<g>
</g>
<g>
</g>
<g>
</g>
<g>
</g>
<g>
</g>
</svg>
